<?xml version="1.0" encoding="UTF-8"?>
<svg id="Layer_1" data-name="Layer 1" xmlns="http://www.w3.org/2000/svg" width="200" height="200" viewBox="0 0 200 200">
  <defs>
    <style>
      .cls-1 {
        stroke-width: 1.78px;
      }

      .cls-1, .cls-2 {
        stroke: #000;
        stroke-miterlimit: 10;
      }

      .cls-3 {
        fill: #8d05fc;
      }
    </style>
  </defs>
  <path d="M96.82,15.59c1.59.34,2.53,1.4,3.64,2.59,15.54,16.6,43.87,26.25,65.94,29.95,2.46.41,4.24,1.95,4.54,4.53-.16,9.43-.85,18.76-2.18,28.17l-4.83-3.86c.98-7.78,1.52-15.57,1.69-23.57-13.12-2.24-25.95-5.92-38.23-11.16-11.72-5.14-22.86-11.71-31.62-21.29-9.76,9.26-20.87,16.81-33.09,22.32-11.46,5.16-24.2,8.21-36.83,7.66l.04,8.96c.69,20.9,4.7,42.96,12.73,62.31,10.81,26.06,29.17,46.95,55.92,56.92,2.93-.91,5.53-1.99,8.27-3.24,7.75-3.7,14.8-8.49,21.3-14.24l6.45,1.29c-6.81,6.54-14.33,12.04-22.63,16.36-4.04,2.1-8.08,3.81-12.3,5.13h-2.24c-20.39-7.45-36.74-21-48.66-39.2-8.91-13.61-14.82-28.78-18.67-44.56-2.92-11.96-4.61-24.07-5.3-36.32l-.09-2.92-.15-.18v-11.15c.54-2.83,2.77-4.6,5.68-4.46,12.65.57,25.42-2.93,36.8-8.42,9.59-4.62,18.34-10.57,26.33-17.55l2.33-2.19c.9-.84,1.83-1.46,2.94-1.88h2.23Z"/>
  <path class="cls-2" d="M82.82,48.45c-.81-.87-2.05-.94-3.07-.19-8.02,5.88-20.5,12.87-34.25,12.78-.01,0-.03,0-.04,0-1.73,0-3.29.63-4.4,1.77-1.12,1.15-1.7,2.74-1.64,4.49.44,13.39,2.62,26.33,6.48,38.47,3.16,9.94,9.17,24.17,19.82,35.49.37.4.85.49,1.19.5.61.03,1.26-.24,1.67-.64.61-.59,1.03-1.88.24-2.76h0c-4.73-5.31-8.62-10.91-11.86-17.13-7.94-15.2-12.64-34.4-13.22-54.07-.02-.54.13-1,.44-1.31.28-.29.68-.45,1.14-.45,6.42-.05,12.87-1.31,19.14-3.73,6.57-2.54,12.75-6.02,18.35-10.34.4-.31.52-.77.54-1.11.06-.72-.22-1.43-.53-1.75Z"/>
  <path class="cls-1" d="M74.07,144.89c1.59-.31,2.89.75,3.13,2.07.28,1.51-.65,2.82-2.06,3.12s-2.82-.6-3.13-1.96c-.33-1.44.48-2.93,2.06-3.23Z"/>
  <path class="cls-3" d="M179.5,115.42c0-2.86-2.54-5.28-5.54-5.28l-7.14.07-.73-1.71,5.14-5.23c2.02-2.02,2.01-5.27-.01-7.39l-5.99-5.99c-1-1-2.33-1.55-3.73-1.55s-2.7.52-3.73,1.55l-4.7,4.71-.82-.74-.74.16c.09.33.32.53.52.63l-.92-.34-.05-7.3c0-2.92-2.12-5.11-4.93-5.11h-8.3c-2.81,0-5.02,2.24-5.02,5.11l-.09,7.4-1.84.71-5.24-5.15c-2.05-1.94-5.29-1.93-7.36.04l-6.02,6.02c-1.94,2.04-1.93,5.27.04,7.34l4.55,4.66c.07.05.13.11.17.17l-.17-.17c-.17-.14-.41-.25-.67-.23l.05.9.95.48-.53,1.07h-7.34c-2.81,0-4.93,2.27-4.93,5.28v8.3c0,2.77,1.84,5.63,4.93,5.63h8.81l-6.01,6.01c-1,1-1.55,2.32-1.55,3.73s.52,2.7,1.55,3.73l6.04,6.04c2.04,1.94,5.28,1.93,7.34-.04l4.75-4.64c.06-.07.12-.13.18-.17l-.18.17c-.11.14-.21.33-.22.57l.89.04.59-.88c.06.03.17.1.32.14l.12.05s.1.04.15.06l.72.21v7.09c0,2.91,2.25,5.28,5.02,5.28h8.3c2.72,0,4.93-2.33,4.93-5.19l-.03-6.59.16-.25c.11-.17.25-.29.36-.37l.16-.11.27-.08c.11-.04.19-.06.26-.07l.21.94.74-.69,4.59,4.59c1,1,2.33,1.55,3.73,1.55s2.7-.52,3.73-1.55l5.92-5.92c1-1,1.55-2.32,1.55-3.73,0-1.48-.55-2.83-1.51-3.69l-5.11-5.02.76-1.24.67-.04h6.45c2.85,0,5.55-2.74,5.55-5.64v-8.3ZM174.93,124.06c-.11.56-.66,1.03-.77,1.1l-.25.17h-6.75c-1.46,0-2.72.46-3.63,1.32l-.29.27h-.4l-.54,1.34c-.84,2.01-.4,4.29,1.13,5.82l5.28,5.28-7.29,7.29-5.24-5.24c-1.41-1.51-3.66-2-5.62-1.24l-.44.16c-1.93.82-3.26,2.74-3.26,4.76l-.03,6.75-.18.77h-9.46l-.17-1.08v-6.36c0-2.13-1.34-4.05-3.4-4.87l-.42-.14s-.08-.03-.12-.05c-.77-.33-1.48-.4-1.96-.4-1.34,0-2.7.52-3.54,1.36l-5.63,5.48-7.42-7.37,5.3-5.3c1.47-1.47,1.87-3.72,1.02-5.76l-.53-.95h-.08l-.3-.33c-.97-1.06-2.33-1.62-3.93-1.62h-6.95l-.25-.64c-.07-.18-.15-.46-.15-.79v-8.46s.08-.92.08-.92h7.26c2.06,0,3.93-1.15,5.15-3.15l.2-.42c.71-1.85.26-4.09-1.17-5.52l-5.4-5.55,7.47-7.38,5.46,5.36c1.47,1.46,3.63,1.93,5.52,1.19.12-.04.16-.06.2-.08l.33-.14c2.04-.81,3.41-2.77,3.41-4.87v-7.61h9.84v7.61c0,2.03,1.33,3.95,3.3,4.78l.51.15c1.87.72,4.02.25,5.47-1.2l5.31-5.31,6.97,7.6-5.33,5.44c-1.53,1.53-1.95,3.72-1.1,5.73l.09.18c.87,2.05,2.73,3.28,4.9,3.28h6.45c.53.02.95.37,1.12.58l.23.28-.02,8.69Z"/>
  <path class="cls-3" d="M141.89,103.51c-8.56,0-15.53,6.97-15.53,15.53s6.97,15.53,15.53,15.53,15.53-6.97,15.53-15.53-6.97-15.53-15.53-15.53ZM141.89,130.45c-6.24,0-11.32-5.08-11.32-11.32s5.08-11.32,11.32-11.32,11.32,5.08,11.32,11.32-5.08,11.32-11.32,11.32Z"/>
</svg>