<?xml version="1.0" encoding="UTF-8"?>
<svg id="Layer_1" data-name="Layer 1" xmlns="http://www.w3.org/2000/svg" width="200" height="200" viewBox="0 0 200 200">
  <defs>
    <style>
      .cls-1 {
        fill: #8d05fc;
      }
    </style>
  </defs>
  <path class="cls-1" d="M163.96,138.97s-.2.3-.22.33c-1.27,2.01-.67,4.67,1.34,5.94,2.01,1.27,4.67.67,5.94-1.34l-3.49-2.54,3.58,2.39c1.33-1.97.82-4.65-1.15-5.98-1.97-1.33-4.65-.82-5.98,1.15-.01.02-.02.03-.03.05h0Z"/>
  <path class="cls-1" d="M162.11,44.34c-1.65-1.67-4.33-1.69-6-.04-.01.01-.02.02-.04.04-1.68,1.7-1.69,4.44,0,6.15,1.6,1.76,4.33,1.88,6.08.28,1.76-1.6,1.88-4.33.28-6.08,0,0-.02-.02-.03-.03l-.29-.31Z"/>
  <path class="cls-1" d="M174.93,62l-.13-.25c-1.1-2.04-3.64-2.79-5.68-1.69-.03.02-.06.03-.08.05-2.09,1.19-2.85,3.84-1.71,5.95,1.11,2.1,3.72,2.9,5.82,1.79,2.1-1.11,2.9-3.72,1.79-5.82,0,0,0-.01-.01-.02Z"/>
  <path class="cls-1" d="M174,83.97c.49,2.33,2.78,3.81,5.11,3.32,2.33-.49,3.81-2.78,3.32-5.11h0l-.09-.39c-.55-2.27-2.84-3.67-5.11-3.12-.02,0-.04,0-.06.01-2.32.6-3.73,2.95-3.17,5.28Z"/>
  <path class="cls-1" d="M172.16,122.05c-.7,2.27.58,4.68,2.85,5.38,2.27.7,4.68-.58,5.38-2.85h0l.05-.16c.76-2.25-.45-4.7-2.7-5.46-2.25-.76-4.7.45-5.46,2.7h0l-.13.39Z"/>
  <path class="cls-1" d="M145.37,30.99c-2.04-1.22-4.69-.56-5.91,1.47-1.22,2.03-.57,4.67,1.46,5.9l.3.18c2.06,1.2,4.69.5,5.89-1.55,1.2-2.06.5-4.69-1.55-5.89l-.19-.11Z"/>
  <path class="cls-1" d="M123.6,30.91c2.29.63,4.66-.72,5.29-3.01.63-2.29-.72-4.66-3.01-5.29,0,0,0,0-.01,0l-.28-.08c-2.3-.62-4.66.74-5.28,3.03-.62,2.29.73,4.65,3.02,5.28l.28.08Z"/>
  <path class="cls-1" d="M175.66,102.91v.29c-.07,2.34,1.78,4.29,4.12,4.36,0,0,.01,0,.02,0h.15c2.32-.03,4.21-1.87,4.31-4.19v-.2c.08-2.38-1.79-4.36-4.17-4.43h0c-2.36-.02-4.32,1.82-4.43,4.18Z"/>
  <path d="M158.65,152.54c-.6-.64-1.42-1.01-2.3-1.04-.87-.04-1.73.29-2.38.89-13.47,12.68-31.1,19.67-49.65,19.67-19.9,0-39.12-8.29-52.73-22.73-13.26-14.08-20.24-32.48-19.66-51.81.58-19.33,8.66-37.28,22.74-50.54,13.47-12.69,31.09-19.68,49.59-19.69l.14-.02.32.02c1.72,0,3.18-1.53,3.18-3.31s-1.48-3.31-3.31-3.31h-.31c-43.56,0-79.01,35.44-79.02,78.99-.02,43.57,35.42,79.03,78.99,79.05h.19c20.18,0,39.37-7.63,54.04-21.49.65-.6,1.02-1.42,1.05-2.31.03-.88-.29-1.73-.89-2.37Z"/>
  <path d="M104.32,56.26c-1.82,0-3.31,1.48-3.31,3.31v40.12s0,0,0,0c0,0,.01.06.01.12.01.12.02.19.03.27.02.16.06.36.12.56.14.66.42,1.19.83,1.62l28.35,28.35c1.29,1.29,3.39,1.3,4.68.01.63-.62.97-1.45.97-2.34,0-.88-.34-1.71-.96-2.34l-27.41-27.41v-38.96c0-1.82-1.48-3.31-3.31-3.31Z"/>
</svg>