<?xml version="1.0" encoding="UTF-8"?>
<svg id="Layer_1" data-name="Layer 1" xmlns="http://www.w3.org/2000/svg" width="200" height="200" viewBox="0 0 200 200">
  <defs>
    <style>
      .cls-1 {
        fill: #8d05fc;
      }
    </style>
  </defs>
  <path d="M160.06,152.18l4.31-6.24.49-.03c8.17-.44,14.11-5.94,14.11-13.08l.02-27.96c0-5.48-2.4-11.24-6.28-15.04-2.89-2.83-6.34-4.29-9.95-4.21l-1.02.02v-10.98c-.02-16.16-6.16-31.4-17.29-42.9-11.12-11.48-26.01-18.01-41.93-18.37-.46-.01-.92-.02-1.38-.02-32.47,0-59.53,26-60.63,58.59l-.05,13.86-1.11-.13c-4.7-.54-9.16.84-12.58,3.88-3.66,3.26-5.76,8.09-5.76,13.26v27.29c-.02,8.9,7.11,16.15,15.87,16.17l15.72.03c.83,0,1.73-.35,2.34-.95.38-.37.82-1.02.82-1.97v-53.87c0-1.53-.87-3.43-2.1-3.71-1.21-.28-2.53-.25-3.93-.22-.54.01-1.08.02-1.61.02h-.99s-.02-11-.02-11c-.06-29.79,23.9-54.29,53.42-54.6.19,0,.37,0,.56,0,14.32,0,27.8,5.54,38,15.63,10.3,10.18,15.97,23.78,15.98,38.29v11.68s-.99,0-.99,0c-.5,0-.97,0-1.43,0-1.43-.02-2.67-.03-4.03.19-1.12.17-2.17,2.08-2.17,3.44v54.16c-.01,1.72,1.55,2.89,3.02,2.9l6.77.04-1.12,1.57c-6.53,9.19-17.19,14.67-28.51,14.67h-1.03s-.17-.8-.17-.8c-2.02-9.61-10.21-16.32-19.92-16.32-.87,0-1.75.06-2.62.17-10.63,1.34-18.44,10.69-17.78,21.29.61,9.73,8.21,17.76,18.08,19.08h4.62c9.2-1.27,16.15-7.6,17.63-16.13l.14-.83h.84c13.52-.04,25.79-6.18,33.66-16.86ZM48.09,92.26l1.03-.03v47.45s-12.12-.02-12.12-.02c-4.89,0-8.9-3.77-9.34-8.75v-29.1c.55-4.3,3.17-8.81,7.82-9.33,2.72-.31,5.46-.26,8.1-.22,1.49.02,3.01.05,4.52,0ZM153.08,139.69v-47.43s10.78.06,10.78.06c1.84,0,3.45,1.45,4.62,2.51l.11.1c2.56,3.3,3.78,6.53,3.79,9.96l.02,27.12c0,2.95-1.33,5.17-3.97,6.59-2.05.74-3.74,1.08-5.23,1.08h-10.1ZM119.14,167.29c-.56,6.48-5.8,11.57-12.45,12.08-.35.03-.7.04-1.05.04-3.52,0-6.88-1.33-9.47-3.76-2.86-2.67-4.48-6.41-4.45-10.27.03-3.68,1.53-7.11,4.22-9.65,2.72-2.57,6.41-3.94,10.11-3.77,3.8.18,7.25,1.84,9.72,4.66,2.52,2.89,3.72,6.67,3.37,10.66Z"/>
  <g>
    <path class="cls-1" d="M74.86,84.41v-5.26l13.45-11.94c1.01-.89,1.72-1.73,2.14-2.52.42-.79.62-1.52.62-2.2,0-.98-.2-1.85-.6-2.62-.4-.76-.97-1.37-1.69-1.8-.73-.44-1.58-.66-2.56-.66s-1.93.23-2.71.7c-.78.47-1.39,1.08-1.82,1.85-.43.76-.63,1.59-.6,2.48h-6.24c0-2.2.48-4.1,1.45-5.7.97-1.6,2.31-2.84,4.03-3.72,1.72-.88,3.73-1.31,6.01-1.31,2.09,0,3.97.46,5.63,1.37,1.65.91,2.96,2.19,3.91,3.82.95,1.63,1.43,3.53,1.43,5.68,0,1.59-.22,2.91-.67,3.95-.44,1.05-1.11,2.01-1.98,2.9-.88.88-1.95,1.88-3.23,3l-8.69,7.62-.49-1.34h15.06v5.7h-22.45Z"/>
    <path class="cls-1" d="M114.82,84.45v-4.99h-13.94v-5.66l10.11-21.43h6.95l-10.11,21.43h6.99v-8.02h6.15v8.02h2.85v5.66h-2.85v4.99h-6.15Z"/>
    <path class="cls-1" d="M73.08,126.34l8.6-12.16-8.42-11.89h7.13l4.81,7.13,4.72-7.13h7.13l-8.42,11.89,8.64,12.16h-7.13l-4.95-7.4-4.99,7.4h-7.13Z"/>
    <path class="cls-1" d="M102.44,126.34l10.78-26.37h-13.72v-5.7h20.23v5.7l-10.74,26.37h-6.55Z"/>
  </g>
</svg>