<svg width="860" height="240" viewBox="0 0 860 240" fill="none" xmlns="http://www.w3.org/2000/svg">
<path d="M263.06 236.448V191.31H269.049L269.737 196.153C270.74 194.691 272.145 193.373 273.893 192.255C275.67 191.109 277.934 190.564 280.714 190.564C283.752 190.564 286.417 191.281 288.71 192.714C291.031 194.147 292.837 196.096 294.155 198.589C295.474 201.082 296.133 203.891 296.133 207.044C296.133 210.196 295.474 213.005 294.155 215.47C292.837 217.934 291.003 219.855 288.71 221.259C286.388 222.663 283.694 223.38 280.628 223.38C278.192 223.38 276.042 222.892 274.179 221.918C272.317 220.944 270.826 219.597 269.737 217.82V236.477H263.06V236.448ZM279.51 217.533C282.376 217.533 284.726 216.559 286.56 214.61C288.423 212.661 289.34 210.11 289.34 206.958C289.34 204.894 288.91 203.06 288.079 201.484C287.248 199.879 286.073 198.646 284.612 197.729C283.15 196.812 281.43 196.382 279.51 196.382C276.644 196.382 274.323 197.357 272.489 199.334C270.654 201.312 269.737 203.862 269.737 206.958C269.737 210.11 270.654 212.661 272.489 214.61C274.323 216.559 276.673 217.533 279.51 217.533Z" fill="#C59331"/>
<path d="M303.44 222.559V191.291H309.43L310.003 197.224C311.093 195.16 312.611 193.527 314.56 192.323C316.509 191.119 318.888 190.518 321.668 190.518V197.511H319.834C317.971 197.511 316.337 197.826 314.876 198.428C313.414 199.029 312.268 200.061 311.408 201.523C310.548 202.984 310.118 204.991 310.118 207.541V222.559H303.44V222.559Z" fill="#C59331"/>
<path d="M331.129 185.384C329.868 185.384 328.836 185.012 328.005 184.209C327.174 183.407 326.773 182.461 326.773 181.286C326.773 180.111 327.174 179.136 328.005 178.363C328.836 177.589 329.868 177.188 331.129 177.188C332.39 177.188 333.422 177.589 334.253 178.363C335.084 179.136 335.485 180.111 335.485 181.286C335.485 182.461 335.084 183.435 334.253 184.209C333.451 185.012 332.39 185.384 331.129 185.384ZM327.805 222.584V191.317H334.482V222.584H327.805Z" fill="#C59331"/>
<path d="M352.115 222.586L340.394 191.318H347.386L356.099 216.224L364.811 191.318H371.747L360.083 222.586H352.115Z" fill="#C59331"/>
<path d="M391.428 223.333C388.391 223.333 385.725 222.616 383.432 221.183C381.111 219.75 379.305 217.801 378.016 215.308C376.726 212.815 376.067 210.006 376.067 206.854C376.067 203.701 376.726 200.892 378.016 198.428C379.305 195.963 381.14 194.043 383.461 192.638C385.782 191.234 388.476 190.518 391.486 190.518C393.979 190.518 396.129 191.005 398.02 191.979C399.883 192.954 401.345 194.301 402.405 196.078L402.778 191.291H409.083V222.559H402.835L402.405 217.715C401.402 219.177 399.998 220.495 398.249 221.613C396.472 222.76 394.208 223.333 391.428 223.333ZM392.632 217.515C395.498 217.515 397.848 216.54 399.654 214.563C401.488 212.585 402.405 210.035 402.405 206.94C402.405 203.787 401.488 201.236 399.654 199.287C397.819 197.339 395.469 196.364 392.632 196.364C389.766 196.364 387.416 197.339 385.582 199.287C383.719 201.236 382.802 203.787 382.802 206.94C382.802 209.003 383.232 210.837 384.063 212.413C384.894 214.018 386.069 215.251 387.559 216.168C389.05 217.085 390.741 217.515 392.632 217.515Z" fill="#C59331"/>
<path d="M430.604 222.523C427.538 222.523 425.101 221.778 423.296 220.287C421.49 218.797 420.573 216.132 420.573 212.32V196.872H415.214V191.255H420.573L421.404 183.316H427.28V191.255H436.107V196.872H427.28V212.32C427.28 214.039 427.652 215.243 428.369 215.874C429.114 216.533 430.375 216.848 432.18 216.848H435.763V222.523H430.604Z" fill="#C59331"/>
<path d="M457.646 223.436C454.579 223.436 451.857 222.748 449.478 221.401C447.099 220.025 445.237 218.134 443.89 215.698C442.543 213.261 441.883 210.424 441.883 207.186C441.883 203.918 442.542 201.024 443.861 198.559C445.179 196.066 447.042 194.146 449.421 192.77C451.8 191.394 454.551 190.678 457.703 190.678C460.77 190.678 463.435 191.366 465.699 192.713C467.964 194.088 469.74 195.894 471.001 198.158C472.262 200.422 472.893 202.915 472.893 205.667C472.893 206.097 472.893 206.526 472.864 207.014C472.836 207.501 472.807 208.045 472.778 208.619H448.446C448.647 211.657 449.65 213.949 451.427 215.526C453.204 217.102 455.296 217.904 457.646 217.904C459.538 217.904 461.114 217.474 462.404 216.615C463.693 215.755 464.639 214.58 465.27 213.118H471.947C471.116 216.07 469.425 218.506 466.932 220.484C464.467 222.433 461.343 223.436 457.646 223.436ZM457.646 196.123C455.411 196.123 453.433 196.782 451.714 198.101C449.994 199.419 448.934 201.425 448.561 204.062H466.215C466.101 201.626 465.241 199.677 463.636 198.272C462.06 196.84 460.053 196.123 457.646 196.123Z" fill="#C59331"/>
<path d="M208.037 2.35547C208.037 27.146 187.946 47.2363 163.156 47.2363C138.365 47.2363 118.275 27.146 118.275 2.35547H81.562C81.562 47.4083 118.103 83.9492 163.156 83.9492C208.209 83.9492 244.749 47.4083 244.749 2.35547H208.037V2.35547Z" fill="#C59331"/>
<path d="M36.7129 143.652C36.7129 118.862 56.8032 98.7715 81.5937 98.7715C106.384 98.7715 126.475 118.862 126.475 143.652H163.187C163.187 98.5995 126.647 62.0586 81.5937 62.0586C36.5409 62.0586 0 98.5995 0 143.652H36.7129Z" fill="#03002F"/>
<path d="M263.083 143.789V64.1155H281.224L282.829 77.6142C285.294 72.914 288.847 69.1596 293.519 66.3796C298.19 63.5996 303.664 62.1953 309.97 62.1953C319.828 62.1953 327.481 65.2905 332.926 71.5097C338.4 77.7288 341.122 86.8139 341.122 98.8222V143.789H320.574V100.742C320.574 93.8928 319.169 88.6481 316.389 85.0083C313.609 81.3686 309.253 79.5343 303.378 79.5343C297.589 79.5343 292.86 81.5692 289.163 85.6388C285.466 89.7085 283.631 95.3831 283.631 102.663V143.789H263.083Z" fill="#03002F"/>
<path d="M469.859 143.744L440.626 64.0703H462.15L482.383 124.313L502.617 64.0703H524.14L494.736 143.744H469.859Z" fill="#03002F"/>
<path d="M564.092 145.693C556.583 145.693 549.905 143.859 544.001 140.219C538.097 136.579 533.454 131.592 530.015 125.287C526.576 118.982 524.885 111.789 524.885 103.764C524.885 95.7394 526.605 88.5745 530.015 82.3267C533.454 76.0503 538.097 71.1495 544.001 67.5384C549.876 63.9559 556.583 62.1504 564.092 62.1504C570.081 62.1504 575.326 63.2681 579.826 65.5322C584.325 67.7677 587.965 70.9489 590.745 75.0185L591.863 64.0992H611.294V143.773H592.006L590.716 132.366C588.137 135.891 584.755 139.015 580.513 141.681C576.329 144.346 570.826 145.693 564.092 145.693ZM568.419 127.695C575.068 127.695 580.485 125.488 584.726 121.017C588.968 116.575 591.06 110.872 591.06 103.907C591.06 96.9431 588.939 91.2398 584.726 86.7976C580.485 82.3554 575.068 80.1199 568.419 80.1199C561.885 80.1199 556.468 82.3267 552.198 86.7116C547.928 91.0965 545.778 96.7711 545.778 103.735C545.778 110.7 547.928 116.432 552.198 120.931C556.497 125.459 561.885 127.695 568.419 127.695Z" fill="#03002F"/>
<path d="M626.946 143.789V64.1155H645.088L646.865 74.8915C649.444 71.0225 652.826 67.9559 657.068 65.6631C661.309 63.3704 666.21 62.1953 671.77 62.1953C684.093 62.1953 692.806 66.9528 697.965 76.4964C700.859 72.1115 704.728 68.615 709.6 66.0643C714.473 63.485 719.803 62.1953 725.593 62.1953C735.967 62.1953 743.963 65.2905 749.523 71.5097C755.083 77.7288 757.863 86.8139 757.863 98.8222V143.789H737.314V100.742C737.314 93.8928 735.996 88.6481 733.388 85.0083C730.751 81.3686 726.71 79.5343 721.265 79.5343C715.705 79.5343 711.234 81.5692 707.852 85.6388C704.47 89.7085 702.779 95.3831 702.779 102.663V143.789H682.231V100.742C682.231 93.8928 680.884 88.6481 678.218 85.0083C675.553 81.3686 671.426 79.5343 665.837 79.5343C660.363 79.5343 655.95 81.5692 652.597 85.6388C649.215 89.7085 647.553 95.3831 647.553 102.663V143.789H626.946Z" fill="#03002F"/>
<path d="M808.275 145.693C800.766 145.693 794.088 143.859 788.184 140.219C782.28 136.579 777.638 131.592 774.198 125.287C770.759 118.982 769.068 111.789 769.068 103.764C769.068 95.7394 770.788 88.5745 774.198 82.3267C777.638 76.0503 782.28 71.1495 788.184 67.5384C794.06 63.9559 800.766 62.1504 808.275 62.1504C814.264 62.1504 819.509 63.2681 824.009 65.5322C828.508 67.7677 832.148 70.9489 834.928 75.0185L836.046 64.0992H855.477V143.773H836.189L834.899 132.366C832.32 135.891 828.938 139.015 824.697 141.681C820.484 144.346 815.01 145.693 808.275 145.693ZM812.602 127.695C819.251 127.695 824.668 125.488 828.91 121.017C833.151 116.575 835.243 110.872 835.243 103.907C835.243 96.9431 833.122 91.2398 828.91 86.7976C824.668 82.3554 819.251 80.1199 812.602 80.1199C806.068 80.1199 800.651 82.3267 796.381 86.7116C792.111 91.0965 789.961 96.7711 789.961 103.735C789.961 110.7 792.111 116.432 796.381 120.931C800.651 125.459 806.068 127.695 812.602 127.695Z" fill="#03002F"/>
<path d="M354.814 108.407V64.0703H375.22V107.776C375.22 121.16 381.697 128.325 393.762 128.325C406 128.325 412.305 121.16 412.305 107.776V64.0703H432.711V108.407C432.711 131.621 416.547 145.664 393.762 145.664C370.978 145.664 354.814 131.621 354.814 108.407Z" fill="#03002F"/>
</svg>
